<?xml version="1.0" encoding="UTF-8" standalone="no"?>
<!DOCTYPE svg PUBLIC "-//W3C//DTD SVG 1.1//EN"
 "http://www.w3.org/Graphics/SVG/1.1/DTD/svg11.dtd">
<!-- Generated by graphviz version 5.0.0 (20220707.1540)
 -->
<!-- Title: dependencies Pages: 1 -->
<svg width="460pt" height="247pt"
 viewBox="0.00 0.00 460.00 246.80" xmlns="http://www.w3.org/2000/svg" xmlns:xlink="http://www.w3.org/1999/xlink">
<g id="graph0" class="graph" transform="scale(1 1) rotate(0) translate(4 242.8)">
<title>dependencies</title>
<polygon fill="white" stroke="transparent" points="-4,4 -4,-242.8 456,-242.8 456,4 -4,4"/>
<text text-anchor="middle" x="226" y="-8.2" font-family="sans-serif" font-size="14.00">dependencies</text>
<g id="clust1" class="cluster">
<title>cluster_UsersModule</title>
<polygon fill="none" stroke="black" stroke-dasharray="1,5" points="8,-32.8 8,-230.8 444,-230.8 444,-32.8 8,-32.8"/>
</g>
<g id="clust6" class="cluster">
<title>cluster_UsersModule_providers</title>
<polygon fill="none" stroke="black" points="16,-40.8 16,-92.8 436,-92.8 436,-40.8 16,-40.8"/>
</g>
<g id="clust4" class="cluster">
<title>cluster_UsersModule_exports</title>
<polygon fill="none" stroke="black" points="121,-170.8 121,-222.8 349,-222.8 349,-170.8 121,-170.8"/>
</g>
<!-- PrismaService  -->
<g id="node1" class="node">
<title>PrismaService </title>
<polygon fill="#fb8072" stroke="black" points="341.37,-214.8 240.63,-214.8 240.63,-178.8 341.37,-178.8 341.37,-214.8"/>
<text text-anchor="middle" x="291" y="-192.6" font-family="Times,serif" font-size="14.00">PrismaService </text>
</g>
<!-- UsersService  -->
<g id="node2" class="node">
<title>UsersService </title>
<polygon fill="#fb8072" stroke="black" points="222.86,-214.8 129.14,-214.8 129.14,-178.8 222.86,-178.8 222.86,-214.8"/>
<text text-anchor="middle" x="176" y="-192.6" font-family="Times,serif" font-size="14.00">UsersService </text>
</g>
<!-- UsersModule -->
<g id="node3" class="node">
<title>UsersModule</title>
<polygon fill="#8dd3c7" stroke="black" points="278.94,-149.8 275.94,-153.8 254.94,-153.8 251.94,-149.8 187.06,-149.8 187.06,-113.8 278.94,-113.8 278.94,-149.8"/>
<text text-anchor="middle" x="233" y="-127.6" font-family="Times,serif" font-size="14.00">UsersModule</text>
</g>
<!-- UsersModule&#45;&gt;PrismaService  -->
<g id="edge1" class="edge">
<title>UsersModule&#45;&gt;PrismaService </title>
<path fill="none" stroke="black" stroke-dasharray="5,2" d="M259.77,-149.91C259.77,-149.91 259.77,-168.79 259.77,-168.79"/>
<polygon fill="black" stroke="black" points="256.27,-168.79 259.77,-178.79 263.27,-168.79 256.27,-168.79"/>
</g>
<!-- UsersModule&#45;&gt;UsersService  -->
<g id="edge2" class="edge">
<title>UsersModule&#45;&gt;UsersService </title>
<path fill="none" stroke="black" stroke-dasharray="5,2" d="M204.98,-149.91C204.98,-149.91 204.98,-168.79 204.98,-168.79"/>
<polygon fill="black" stroke="black" points="201.48,-168.79 204.98,-178.79 208.48,-168.79 201.48,-168.79"/>
</g>
<!-- EmailFilter -->
<g id="node4" class="node">
<title>EmailFilter</title>
<ellipse fill="#fdb462" stroke="black" cx="373" cy="-66.8" rx="55.04" ry="18"/>
<text text-anchor="middle" x="373" y="-62.6" font-family="Times,serif" font-size="14.00">EmailFilter</text>
</g>
<!-- EmailFilter&#45;&gt;UsersModule -->
<g id="edge3" class="edge">
<title>EmailFilter&#45;&gt;UsersModule</title>
<path fill="none" stroke="black" d="M329.58,-78.12C329.58,-96.75 329.58,-131.8 329.58,-131.8 329.58,-131.8 288.75,-131.8 288.75,-131.8"/>
<polygon fill="black" stroke="black" points="288.75,-128.3 278.75,-131.8 288.75,-135.3 288.75,-128.3"/>
</g>
<!-- PrismaService -->
<g id="node5" class="node">
<title>PrismaService</title>
<ellipse fill="#fdb462" stroke="black" cx="233" cy="-66.8" rx="66.64" ry="18"/>
<text text-anchor="middle" x="233" y="-62.6" font-family="Times,serif" font-size="14.00">PrismaService</text>
</g>
<!-- PrismaService&#45;&gt;UsersModule -->
<g id="edge4" class="edge">
<title>PrismaService&#45;&gt;UsersModule</title>
<path fill="none" stroke="black" d="M233,-84.91C233,-84.91 233,-103.79 233,-103.79"/>
<polygon fill="black" stroke="black" points="229.5,-103.79 233,-113.79 236.5,-103.79 229.5,-103.79"/>
</g>
<!-- UsersService -->
<g id="node6" class="node">
<title>UsersService</title>
<ellipse fill="#fdb462" stroke="black" cx="86" cy="-66.8" rx="61.97" ry="18"/>
<text text-anchor="middle" x="86" y="-62.6" font-family="Times,serif" font-size="14.00">UsersService</text>
</g>
<!-- UsersService&#45;&gt;UsersModule -->
<g id="edge5" class="edge">
<title>UsersService&#45;&gt;UsersModule</title>
<path fill="none" stroke="black" d="M138.65,-76.39C138.65,-94.47 138.65,-131.8 138.65,-131.8 138.65,-131.8 177.21,-131.8 177.21,-131.8"/>
<polygon fill="black" stroke="black" points="177.21,-135.3 187.21,-131.8 177.21,-128.3 177.21,-135.3"/>
</g>
</g>
</svg>
