<?xml version="1.0" encoding="UTF-8" standalone="no"?>
<!DOCTYPE svg PUBLIC "-//W3C//DTD SVG 1.1//EN"
 "http://www.w3.org/Graphics/SVG/1.1/DTD/svg11.dtd">
<!-- Generated by graphviz version 5.0.0 (20220707.1540)
 -->
<!-- Title: dependencies Pages: 1 -->
<svg width="1241pt" height="247pt"
 viewBox="0.00 0.00 1241.00 246.80" xmlns="http://www.w3.org/2000/svg" xmlns:xlink="http://www.w3.org/1999/xlink">
<g id="graph0" class="graph" transform="scale(1 1) rotate(0) translate(4 242.8)">
<title>dependencies</title>
<polygon fill="white" stroke="transparent" points="-4,4 -4,-242.8 1237,-242.8 1237,4 -4,4"/>
<text text-anchor="middle" x="616.5" y="-8.2" font-family="sans-serif" font-size="14.00">dependencies</text>
<g id="clust1" class="cluster">
<title>cluster_AuthModule</title>
<polygon fill="none" stroke="black" stroke-dasharray="1,5" points="8,-32.8 8,-230.8 1225,-230.8 1225,-32.8 8,-32.8"/>
</g>
<g id="clust6" class="cluster">
<title>cluster_AuthModule_providers</title>
<polygon fill="none" stroke="black" points="132,-40.8 132,-92.8 1217,-92.8 1217,-40.8 132,-40.8"/>
</g>
<g id="clust3" class="cluster">
<title>cluster_AuthModule_imports</title>
<polygon fill="none" stroke="black" points="16,-40.8 16,-92.8 124,-92.8 124,-40.8 16,-40.8"/>
</g>
<g id="clust4" class="cluster">
<title>cluster_AuthModule_exports</title>
<polygon fill="none" stroke="black" points="499,-170.8 499,-222.8 713,-222.8 713,-170.8 499,-170.8"/>
</g>
<!-- UsersModule -->
<g id="node1" class="node">
<title>UsersModule</title>
<polygon fill="#8dd3c7" stroke="black" points="115.94,-84.8 112.94,-88.8 91.94,-88.8 88.94,-84.8 24.06,-84.8 24.06,-48.8 115.94,-48.8 115.94,-84.8"/>
<text text-anchor="middle" x="70" y="-62.6" font-family="Times,serif" font-size="14.00">UsersModule</text>
</g>
<!-- AuthModule -->
<g id="node2" class="node">
<title>AuthModule</title>
<polygon fill="#8dd3c7" stroke="black" points="649.55,-149.8 646.55,-153.8 625.55,-153.8 622.55,-149.8 562.45,-149.8 562.45,-113.8 649.55,-113.8 649.55,-149.8"/>
<text text-anchor="middle" x="606" y="-127.6" font-family="Times,serif" font-size="14.00">AuthModule</text>
</g>
<!-- UsersModule&#45;&gt;AuthModule -->
<g id="edge1" class="edge">
<title>UsersModule&#45;&gt;AuthModule</title>
<path fill="none" stroke="black" d="M70,-85.09C70,-107.01 70,-140.8 70,-140.8 70,-140.8 552.14,-140.8 552.14,-140.8"/>
<polygon fill="black" stroke="black" points="552.14,-144.3 562.14,-140.8 552.14,-137.3 552.14,-144.3"/>
</g>
<!-- AuthService  -->
<g id="node3" class="node">
<title>AuthService </title>
<polygon fill="#fb8072" stroke="black" points="704.98,-214.8 615.02,-214.8 615.02,-178.8 704.98,-178.8 704.98,-214.8"/>
<text text-anchor="middle" x="660" y="-192.6" font-family="Times,serif" font-size="14.00">AuthService </text>
</g>
<!-- AuthModule&#45;&gt;AuthService  -->
<g id="edge2" class="edge">
<title>AuthModule&#45;&gt;AuthService </title>
<path fill="none" stroke="black" stroke-dasharray="5,2" d="M632.52,-149.91C632.52,-149.91 632.52,-168.79 632.52,-168.79"/>
<polygon fill="black" stroke="black" points="629.02,-168.79 632.52,-178.79 636.02,-168.79 629.02,-168.79"/>
</g>
<!-- HashService  -->
<g id="node4" class="node">
<title>HashService </title>
<polygon fill="#fb8072" stroke="black" points="597.25,-214.8 506.75,-214.8 506.75,-178.8 597.25,-178.8 597.25,-214.8"/>
<text text-anchor="middle" x="552" y="-192.6" font-family="Times,serif" font-size="14.00">HashService </text>
</g>
<!-- AuthModule&#45;&gt;HashService  -->
<g id="edge3" class="edge">
<title>AuthModule&#45;&gt;HashService </title>
<path fill="none" stroke="black" stroke-dasharray="5,2" d="M579.68,-149.91C579.68,-149.91 579.68,-168.79 579.68,-168.79"/>
<polygon fill="black" stroke="black" points="576.18,-168.79 579.68,-178.79 583.18,-168.79 576.18,-168.79"/>
</g>
<!-- AuthService -->
<g id="node5" class="node">
<title>AuthService</title>
<ellipse fill="#fdb462" stroke="black" cx="1150" cy="-66.8" rx="59.11" ry="18"/>
<text text-anchor="middle" x="1150" y="-62.6" font-family="Times,serif" font-size="14.00">AuthService</text>
</g>
<!-- AuthService&#45;&gt;AuthModule -->
<g id="edge4" class="edge">
<title>AuthService&#45;&gt;AuthModule</title>
<path fill="none" stroke="black" d="M1150,-85.09C1150,-107.01 1150,-140.8 1150,-140.8 1150,-140.8 659.6,-140.8 659.6,-140.8"/>
<polygon fill="black" stroke="black" points="659.6,-137.3 649.6,-140.8 659.6,-144.3 659.6,-137.3"/>
</g>
<!-- FacebookStrategy -->
<g id="node6" class="node">
<title>FacebookStrategy</title>
<ellipse fill="#fdb462" stroke="black" cx="992" cy="-66.8" rx="80.52" ry="18"/>
<text text-anchor="middle" x="992" y="-62.6" font-family="Times,serif" font-size="14.00">FacebookStrategy</text>
</g>
<!-- FacebookStrategy&#45;&gt;AuthModule -->
<g id="edge5" class="edge">
<title>FacebookStrategy&#45;&gt;AuthModule</title>
<path fill="none" stroke="black" d="M992,-84.91C992,-104.14 992,-131.8 992,-131.8 992,-131.8 659.9,-131.8 659.9,-131.8"/>
<polygon fill="black" stroke="black" points="659.9,-128.3 649.9,-131.8 659.9,-135.3 659.9,-128.3"/>
</g>
<!-- GoogleStrategy -->
<g id="node7" class="node">
<title>GoogleStrategy</title>
<ellipse fill="#fdb462" stroke="black" cx="822" cy="-66.8" rx="71.79" ry="18"/>
<text text-anchor="middle" x="822" y="-62.6" font-family="Times,serif" font-size="14.00">GoogleStrategy</text>
</g>
<!-- GoogleStrategy&#45;&gt;AuthModule -->
<g id="edge6" class="edge">
<title>GoogleStrategy&#45;&gt;AuthModule</title>
<path fill="none" stroke="black" d="M822,-84.83C822,-101.2 822,-122.8 822,-122.8 822,-122.8 659.71,-122.8 659.71,-122.8"/>
<polygon fill="black" stroke="black" points="659.71,-119.3 649.71,-122.8 659.71,-126.3 659.71,-119.3"/>
</g>
<!-- HashService -->
<g id="node8" class="node">
<title>HashService</title>
<ellipse fill="#fdb462" stroke="black" cx="673" cy="-66.8" rx="59.68" ry="18"/>
<text text-anchor="middle" x="673" y="-62.6" font-family="Times,serif" font-size="14.00">HashService</text>
</g>
<!-- HashService&#45;&gt;AuthModule -->
<g id="edge7" class="edge">
<title>HashService&#45;&gt;AuthModule</title>
<path fill="none" stroke="black" d="M631.47,-79.95C631.47,-79.95 631.47,-103.49 631.47,-103.49"/>
<polygon fill="black" stroke="black" points="627.97,-103.49 631.47,-113.49 634.97,-103.49 627.97,-103.49"/>
</g>
<!-- JwtStrategy -->
<g id="node9" class="node">
<title>JwtStrategy</title>
<ellipse fill="#fdb462" stroke="black" cx="539" cy="-66.8" rx="56.77" ry="18"/>
<text text-anchor="middle" x="539" y="-62.6" font-family="Times,serif" font-size="14.00">JwtStrategy</text>
</g>
<!-- JwtStrategy&#45;&gt;AuthModule -->
<g id="edge8" class="edge">
<title>JwtStrategy&#45;&gt;AuthModule</title>
<path fill="none" stroke="black" d="M578.93,-79.64C578.93,-79.64 578.93,-103.32 578.93,-103.32"/>
<polygon fill="black" stroke="black" points="575.43,-103.32 578.93,-113.32 582.43,-103.32 575.43,-103.32"/>
</g>
<!-- UserCreatedListener -->
<g id="node10" class="node">
<title>UserCreatedListener</title>
<ellipse fill="#fdb462" stroke="black" cx="373" cy="-66.8" rx="90.87" ry="18"/>
<text text-anchor="middle" x="373" y="-62.6" font-family="Times,serif" font-size="14.00">UserCreatedListener</text>
</g>
<!-- UserCreatedListener&#45;&gt;AuthModule -->
<g id="edge9" class="edge">
<title>UserCreatedListener&#45;&gt;AuthModule</title>
<path fill="none" stroke="black" d="M373,-84.83C373,-101.2 373,-122.8 373,-122.8 373,-122.8 552.17,-122.8 552.17,-122.8"/>
<polygon fill="black" stroke="black" points="552.17,-126.3 562.17,-122.8 552.17,-119.3 552.17,-126.3"/>
</g>
<!-- UsersService -->
<g id="node11" class="node">
<title>UsersService</title>
<ellipse fill="#fdb462" stroke="black" cx="202" cy="-66.8" rx="61.97" ry="18"/>
<text text-anchor="middle" x="202" y="-62.6" font-family="Times,serif" font-size="14.00">UsersService</text>
</g>
<!-- UsersService&#45;&gt;AuthModule -->
<g id="edge10" class="edge">
<title>UsersService&#45;&gt;AuthModule</title>
<path fill="none" stroke="black" d="M202,-84.91C202,-104.14 202,-131.8 202,-131.8 202,-131.8 552.38,-131.8 552.38,-131.8"/>
<polygon fill="black" stroke="black" points="552.38,-135.3 562.38,-131.8 552.38,-128.3 552.38,-135.3"/>
</g>
</g>
</svg>
