<?xml version="1.0" encoding="UTF-8" standalone="no"?>
<!DOCTYPE svg PUBLIC "-//W3C//DTD SVG 1.1//EN"
 "http://www.w3.org/Graphics/SVG/1.1/DTD/svg11.dtd">
<!-- Generated by graphviz version 5.0.0 (20220707.1540)
 -->
<!-- Title: dependencies Pages: 1 -->
<svg width="502pt" height="247pt"
 viewBox="0.00 0.00 502.00 246.80" xmlns="http://www.w3.org/2000/svg" xmlns:xlink="http://www.w3.org/1999/xlink">
<g id="graph0" class="graph" transform="scale(1 1) rotate(0) translate(4 242.8)">
<title>dependencies</title>
<polygon fill="white" stroke="transparent" points="-4,4 -4,-242.8 498,-242.8 498,4 -4,4"/>
<text text-anchor="middle" x="247" y="-8.2" font-family="sans-serif" font-size="14.00">dependencies</text>
<g id="clust1" class="cluster">
<title>cluster_ProductsModule</title>
<polygon fill="none" stroke="black" stroke-dasharray="1,5" points="8,-32.8 8,-230.8 486,-230.8 486,-32.8 8,-32.8"/>
</g>
<g id="clust4" class="cluster">
<title>cluster_ProductsModule_exports</title>
<polygon fill="none" stroke="black" points="133,-170.8 133,-222.8 377,-222.8 377,-170.8 133,-170.8"/>
</g>
<g id="clust6" class="cluster">
<title>cluster_ProductsModule_providers</title>
<polygon fill="none" stroke="black" points="16,-40.8 16,-92.8 478,-92.8 478,-40.8 16,-40.8"/>
</g>
<!-- PrismaService  -->
<g id="node1" class="node">
<title>PrismaService </title>
<polygon fill="#fb8072" stroke="black" points="369.37,-214.8 268.63,-214.8 268.63,-178.8 369.37,-178.8 369.37,-214.8"/>
<text text-anchor="middle" x="319" y="-192.6" font-family="Times,serif" font-size="14.00">PrismaService </text>
</g>
<!-- ProductsService  -->
<g id="node2" class="node">
<title>ProductsService </title>
<polygon fill="#fb8072" stroke="black" points="251.48,-214.8 140.52,-214.8 140.52,-178.8 251.48,-178.8 251.48,-214.8"/>
<text text-anchor="middle" x="196" y="-192.6" font-family="Times,serif" font-size="14.00">ProductsService </text>
</g>
<!-- ProductsModule -->
<g id="node3" class="node">
<title>ProductsModule</title>
<polygon fill="#8dd3c7" stroke="black" points="311.05,-149.8 308.05,-153.8 287.05,-153.8 284.05,-149.8 202.95,-149.8 202.95,-113.8 311.05,-113.8 311.05,-149.8"/>
<text text-anchor="middle" x="257" y="-127.6" font-family="Times,serif" font-size="14.00">ProductsModule</text>
</g>
<!-- ProductsModule&#45;&gt;PrismaService  -->
<g id="edge1" class="edge">
<title>ProductsModule&#45;&gt;PrismaService </title>
<path fill="none" stroke="black" stroke-dasharray="5,2" d="M290.05,-149.91C290.05,-149.91 290.05,-168.79 290.05,-168.79"/>
<polygon fill="black" stroke="black" points="286.55,-168.79 290.05,-178.79 293.55,-168.79 286.55,-168.79"/>
</g>
<!-- ProductsModule&#45;&gt;ProductsService  -->
<g id="edge2" class="edge">
<title>ProductsModule&#45;&gt;ProductsService </title>
<path fill="none" stroke="black" stroke-dasharray="5,2" d="M226.98,-149.91C226.98,-149.91 226.98,-168.79 226.98,-168.79"/>
<polygon fill="black" stroke="black" points="223.48,-168.79 226.98,-178.79 230.48,-168.79 223.48,-168.79"/>
</g>
<!-- CacheService -->
<g id="node4" class="node">
<title>CacheService</title>
<ellipse fill="#fdb462" stroke="black" cx="406" cy="-66.8" rx="64.24" ry="18"/>
<text text-anchor="middle" x="406" y="-62.6" font-family="Times,serif" font-size="14.00">CacheService</text>
</g>
<!-- CacheService&#45;&gt;ProductsModule -->
<g id="edge3" class="edge">
<title>CacheService&#45;&gt;ProductsModule</title>
<path fill="none" stroke="black" d="M355.53,-78.12C355.53,-96.75 355.53,-131.8 355.53,-131.8 355.53,-131.8 321.17,-131.8 321.17,-131.8"/>
<polygon fill="black" stroke="black" points="321.17,-128.3 311.17,-131.8 321.17,-135.3 321.17,-128.3"/>
</g>
<!-- PrismaService -->
<g id="node5" class="node">
<title>PrismaService</title>
<ellipse fill="#fdb462" stroke="black" cx="257" cy="-66.8" rx="66.64" ry="18"/>
<text text-anchor="middle" x="257" y="-62.6" font-family="Times,serif" font-size="14.00">PrismaService</text>
</g>
<!-- PrismaService&#45;&gt;ProductsModule -->
<g id="edge4" class="edge">
<title>PrismaService&#45;&gt;ProductsModule</title>
<path fill="none" stroke="black" d="M257,-84.91C257,-84.91 257,-103.79 257,-103.79"/>
<polygon fill="black" stroke="black" points="253.5,-103.79 257,-113.79 260.5,-103.79 253.5,-103.79"/>
</g>
<!-- ProductsService -->
<g id="node6" class="node">
<title>ProductsService</title>
<ellipse fill="#fdb462" stroke="black" cx="98" cy="-66.8" rx="73.59" ry="18"/>
<text text-anchor="middle" x="98" y="-62.6" font-family="Times,serif" font-size="14.00">ProductsService</text>
</g>
<!-- ProductsService&#45;&gt;ProductsModule -->
<g id="edge5" class="edge">
<title>ProductsService&#45;&gt;ProductsModule</title>
<path fill="none" stroke="black" d="M156.28,-78.12C156.28,-96.75 156.28,-131.8 156.28,-131.8 156.28,-131.8 192.81,-131.8 192.81,-131.8"/>
<polygon fill="black" stroke="black" points="192.81,-135.3 202.81,-131.8 192.81,-128.3 192.81,-135.3"/>
</g>
</g>
</svg>
